<mxfile host="app.diagrams.net" modified="2021-04-05T03:38:35.806Z" agent="5.0 (Macintosh; Intel Mac OS X 10_15_4) AppleWebKit/537.36 (KHTML, like Gecko) Chrome/87.0.4280.88 Safari/537.36" etag="8U4sV1CkbKHR91Hne9Yp" version="14.3.1" type="github">
  <diagram id="h7SI_BFDKXV4uLYVy1Ud" name="Page-1">
    <mxGraphModel dx="1892" dy="1022" grid="1" gridSize="10" guides="1" tooltips="1" connect="1" arrows="1" fold="1" page="1" pageScale="1.5" pageWidth="850" pageHeight="1100" math="0" shadow="0">
      <root>
        <mxCell id="0" />
        <mxCell id="1" parent="0" />
        <mxCell id="78tmiLT96YUY_zmRKEJ_-1" value="" style="endArrow=none;html=1;" edge="1" parent="1">
          <mxGeometry width="50" height="50" relative="1" as="geometry">
            <mxPoint x="440" y="1160" as="sourcePoint" />
            <mxPoint x="440" y="640" as="targetPoint" />
          </mxGeometry>
        </mxCell>
        <mxCell id="78tmiLT96YUY_zmRKEJ_-2" value="" style="endArrow=none;html=1;" edge="1" parent="1">
          <mxGeometry width="50" height="50" relative="1" as="geometry">
            <mxPoint x="960" y="1160" as="sourcePoint" />
            <mxPoint x="960" y="480" as="targetPoint" />
          </mxGeometry>
        </mxCell>
        <mxCell id="78tmiLT96YUY_zmRKEJ_-3" value="" style="endArrow=none;html=1;" edge="1" parent="1">
          <mxGeometry width="50" height="50" relative="1" as="geometry">
            <mxPoint x="240" y="480" as="sourcePoint" />
            <mxPoint x="960" y="480" as="targetPoint" />
          </mxGeometry>
        </mxCell>
        <mxCell id="78tmiLT96YUY_zmRKEJ_-4" value="" style="endArrow=none;html=1;" edge="1" parent="1">
          <mxGeometry width="50" height="50" relative="1" as="geometry">
            <mxPoint x="240" y="1160" as="sourcePoint" />
            <mxPoint x="440" y="1160" as="targetPoint" />
          </mxGeometry>
        </mxCell>
        <mxCell id="78tmiLT96YUY_zmRKEJ_-8" value="" style="endArrow=none;html=1;" edge="1" parent="1">
          <mxGeometry width="50" height="50" relative="1" as="geometry">
            <mxPoint x="440" y="640" as="sourcePoint" />
            <mxPoint x="760" y="640" as="targetPoint" />
          </mxGeometry>
        </mxCell>
        <mxCell id="78tmiLT96YUY_zmRKEJ_-9" value="" style="endArrow=none;html=1;" edge="1" parent="1">
          <mxGeometry width="50" height="50" relative="1" as="geometry">
            <mxPoint x="600" y="1160" as="sourcePoint" />
            <mxPoint x="600" y="640" as="targetPoint" />
          </mxGeometry>
        </mxCell>
        <mxCell id="78tmiLT96YUY_zmRKEJ_-10" value="" style="endArrow=none;html=1;" edge="1" parent="1">
          <mxGeometry width="50" height="50" relative="1" as="geometry">
            <mxPoint x="440" y="1160" as="sourcePoint" />
            <mxPoint x="760" y="1160" as="targetPoint" />
          </mxGeometry>
        </mxCell>
        <mxCell id="78tmiLT96YUY_zmRKEJ_-11" value="" style="ellipse;whiteSpace=wrap;html=1;aspect=fixed;" vertex="1" parent="1">
          <mxGeometry x="550" y="890" width="20" height="20" as="geometry" />
        </mxCell>
        <mxCell id="78tmiLT96YUY_zmRKEJ_-13" value="" style="endArrow=classic;startArrow=classic;html=1;" edge="1" parent="1">
          <mxGeometry width="50" height="50" relative="1" as="geometry">
            <mxPoint x="800" y="1160" as="sourcePoint" />
            <mxPoint x="800" y="645" as="targetPoint" />
          </mxGeometry>
        </mxCell>
        <mxCell id="78tmiLT96YUY_zmRKEJ_-14" value="" style="endArrow=classic;startArrow=classic;html=1;" edge="1" parent="1">
          <mxGeometry width="50" height="50" relative="1" as="geometry">
            <mxPoint x="440" y="620" as="sourcePoint" />
            <mxPoint x="760" y="620" as="targetPoint" />
          </mxGeometry>
        </mxCell>
        <mxCell id="78tmiLT96YUY_zmRKEJ_-17" value="" style="endArrow=none;html=1;" edge="1" parent="1">
          <mxGeometry width="50" height="50" relative="1" as="geometry">
            <mxPoint x="240" y="1160" as="sourcePoint" />
            <mxPoint x="240" y="480" as="targetPoint" />
          </mxGeometry>
        </mxCell>
        <mxCell id="78tmiLT96YUY_zmRKEJ_-19" value="" style="endArrow=none;html=1;" edge="1" parent="1">
          <mxGeometry width="50" height="50" relative="1" as="geometry">
            <mxPoint x="760" y="1160" as="sourcePoint" />
            <mxPoint x="960" y="1160" as="targetPoint" />
          </mxGeometry>
        </mxCell>
        <mxCell id="78tmiLT96YUY_zmRKEJ_-20" value="" style="endArrow=none;html=1;" edge="1" parent="1">
          <mxGeometry width="50" height="50" relative="1" as="geometry">
            <mxPoint x="760" y="1160" as="sourcePoint" />
            <mxPoint x="760" y="640" as="targetPoint" />
          </mxGeometry>
        </mxCell>
        <mxCell id="78tmiLT96YUY_zmRKEJ_-22" value="" style="ellipse;whiteSpace=wrap;html=1;aspect=fixed;" vertex="1" parent="1">
          <mxGeometry x="628" y="890" width="20" height="20" as="geometry" />
        </mxCell>
        <mxCell id="78tmiLT96YUY_zmRKEJ_-23" value="" style="endArrow=classic;startArrow=classic;html=1;" edge="1" parent="1">
          <mxGeometry width="50" height="50" relative="1" as="geometry">
            <mxPoint x="200" y="1170" as="sourcePoint" />
            <mxPoint x="200" y="480" as="targetPoint" />
          </mxGeometry>
        </mxCell>
        <mxCell id="78tmiLT96YUY_zmRKEJ_-24" value="" style="endArrow=classic;startArrow=classic;html=1;" edge="1" parent="1">
          <mxGeometry width="50" height="50" relative="1" as="geometry">
            <mxPoint x="240" y="440" as="sourcePoint" />
            <mxPoint x="960" y="440" as="targetPoint" />
          </mxGeometry>
        </mxCell>
        <mxCell id="78tmiLT96YUY_zmRKEJ_-25" value="" style="endArrow=classic;startArrow=classic;html=1;" edge="1" parent="1">
          <mxGeometry width="50" height="50" relative="1" as="geometry">
            <mxPoint x="440" y="1190" as="sourcePoint" />
            <mxPoint x="600" y="1190" as="targetPoint" />
          </mxGeometry>
        </mxCell>
        <mxCell id="78tmiLT96YUY_zmRKEJ_-26" value="7&#39; 9&quot;" style="text;html=1;strokeColor=none;fillColor=none;align=center;verticalAlign=middle;whiteSpace=wrap;rounded=0;fontSize=32;" vertex="1" parent="1">
          <mxGeometry x="540" y="380" width="140" height="40" as="geometry" />
        </mxCell>
        <mxCell id="78tmiLT96YUY_zmRKEJ_-27" value="50 3/4&quot;" style="text;html=1;strokeColor=none;fillColor=none;align=center;verticalAlign=middle;whiteSpace=wrap;rounded=0;fontSize=32;" vertex="1" parent="1">
          <mxGeometry x="530" y="560" width="140" height="40" as="geometry" />
        </mxCell>
        <mxCell id="78tmiLT96YUY_zmRKEJ_-28" value="80 7/8&quot;" style="text;html=1;strokeColor=none;fillColor=none;align=center;verticalAlign=middle;whiteSpace=wrap;rounded=0;fontSize=32;" vertex="1" parent="1">
          <mxGeometry x="790" y="825" width="140" height="40" as="geometry" />
        </mxCell>
        <mxCell id="78tmiLT96YUY_zmRKEJ_-29" value="9&#39;" style="text;html=1;strokeColor=none;fillColor=none;align=center;verticalAlign=middle;whiteSpace=wrap;rounded=0;fontSize=32;" vertex="1" parent="1">
          <mxGeometry x="50" y="770" width="140" height="40" as="geometry" />
        </mxCell>
        <mxCell id="78tmiLT96YUY_zmRKEJ_-30" value="26&quot;" style="text;html=1;strokeColor=none;fillColor=none;align=center;verticalAlign=middle;whiteSpace=wrap;rounded=0;fontSize=32;" vertex="1" parent="1">
          <mxGeometry x="450" y="1200" width="140" height="40" as="geometry" />
        </mxCell>
        <mxCell id="78tmiLT96YUY_zmRKEJ_-31" value="" style="endArrow=classic;startArrow=classic;html=1;" edge="1" parent="1">
          <mxGeometry width="50" height="50" relative="1" as="geometry">
            <mxPoint x="760" y="1190" as="sourcePoint" />
            <mxPoint x="960" y="1190" as="targetPoint" />
          </mxGeometry>
        </mxCell>
        <mxCell id="78tmiLT96YUY_zmRKEJ_-32" value="40 1/4&quot; Rough" style="text;html=1;strokeColor=none;fillColor=none;align=center;verticalAlign=middle;whiteSpace=wrap;rounded=0;fontSize=32;" vertex="1" parent="1">
          <mxGeometry x="790" y="1210" width="210" height="30" as="geometry" />
        </mxCell>
        <mxCell id="78tmiLT96YUY_zmRKEJ_-33" value="&lt;span style=&quot;background-color: rgb(255 , 255 , 102)&quot;&gt;3 - 4&#39; x 8&#39; Plywood Sheets&lt;br&gt;2 - 26&quot; x 80&quot; Doors&lt;br&gt;2 - Door Knobs&lt;/span&gt;" style="text;html=1;align=center;verticalAlign=middle;resizable=0;points=[];autosize=1;fontSize=32;" vertex="1" parent="1">
          <mxGeometry x="70" y="1340" width="380" height="120" as="geometry" />
        </mxCell>
      </root>
    </mxGraphModel>
  </diagram>
</mxfile>
